<svg xmlns="http://www.w3.org/2000/svg" viewBox="0 0 100 125"><path d="M89.2 60.8c-4.5 0-6.6-5.3-8.6-10.4-1.8-4.5-3.6-9-6.8-9s-5 4.5-6.8 9c-2 5-4 10.4-8.6 10.4s-6.6-5.3-8.6-10.4c-1.8-4.5-3.6-9-6.8-9s-5 4.5-6.8 9c-2 5-4 10.4-8.6 10.4-4.5 0-6.6-5.3-8.6-10.4-1.8-4.5-3.6-9-6.8-9-.6 0-1-.5-1-1s.4-1 1-1c4.5 0 6.6 5.2 8.6 10.3 1.8 4.5 3.6 9 6.8 9 3.2 0 5-4.5 6.8-9 2-5 4-10.4 8.6-10.4s6.6 5.3 8.6 10.4c1.8 4.5 3.6 9 6.8 9 3.2 0 5-4.5 6.8-9 2-5 4-10.4 8.6-10.4s6.6 5.3 8.6 10.4c1.8 4.5 3.6 9 6.8 9 .6 0 1 .5 1 1s-.4 1-1 1z"/></svg>